<?xml version="1.0" standalone="no"?>
<!DOCTYPE svg PUBLIC "-//W3C//DTD SVG 20010904//EN"
 "http://www.w3.org/TR/2001/REC-SVG-20010904/DTD/svg10.dtd">
<svg version="1.0" xmlns="http://www.w3.org/2000/svg"
 width="800.000000pt" height="571.000000pt" viewBox="0 0 800.000000 571.000000"
 preserveAspectRatio="xMidYMid meet">
<metadata>
Created by potrace 1.16, written by Peter Selinger 2001-2019
</metadata>
<g transform="translate(0.000000,571.000000) scale(0.100000,-0.100000)"
fill="#000000" stroke="none">
<path d="M4865 5000 c-55 -5 -143 -18 -195 -30 -52 -12 -106 -24 -120 -27 -52
-11 -256 -75 -275 -87 -21 -13 -145 -66 -275 -117 -41 -17 -95 -40 -120 -53
-25 -13 -70 -31 -101 -39 -31 -9 -73 -31 -95 -48 -21 -17 -70 -47 -109 -66
-38 -20 -86 -48 -106 -64 -19 -15 -48 -34 -65 -41 -16 -7 -72 -37 -124 -67
l-95 -53 -135 -3 c-74 -2 -175 -6 -225 -10 -67 -5 -143 0 -300 19 -194 23
-233 25 -521 21 -304 -5 -369 -11 -484 -45 -55 -16 -55 -13 -1 47 87 97 114
183 87 275 -16 55 -66 116 -85 104 -6 -4 -8 -37 -4 -90 6 -93 -4 -140 -44
-187 -53 -63 -70 -66 -373 -72 -151 -3 -304 -10 -340 -16 -96 -17 -223 -82
-290 -150 -85 -86 -113 -147 -118 -254 -4 -86 -3 -90 32 -157 20 -38 36 -75
36 -81 0 -6 15 -29 32 -49 18 -21 41 -50 51 -64 10 -14 53 -49 95 -78 42 -28
80 -57 85 -64 4 -7 40 -15 81 -19 48 -5 77 -12 80 -21 3 -7 22 -22 43 -33 76
-39 133 -120 133 -190 0 -83 98 -590 130 -671 27 -69 25 -127 -9 -248 -17 -57
-33 -135 -37 -175 -7 -81 -37 -164 -83 -231 -42 -60 -46 -89 -27 -181 30 -147
17 -325 -33 -435 -15 -32 -21 -66 -21 -120 0 -63 6 -88 36 -160 60 -142 58
-136 45 -220 -12 -71 -11 -81 7 -121 23 -52 44 -72 97 -95 34 -14 66 -15 244
-9 208 8 252 13 258 32 2 5 -15 32 -37 59 -23 27 -47 63 -55 81 -7 17 -38 61
-69 97 -70 82 -90 145 -80 245 4 42 2 81 -5 102 -17 53 10 186 59 288 22 45
78 138 124 205 46 66 99 153 119 191 19 39 51 87 71 108 20 20 36 44 36 53 0
31 80 144 102 144 11 0 10 -203 -1 -271 -23 -134 -22 -146 6 -179 14 -18 58
-57 97 -88 146 -116 219 -212 313 -408 51 -109 86 -153 157 -199 14 -10 30
-33 36 -54 5 -20 28 -69 51 -109 58 -105 62 -106 316 -99 259 8 337 26 286 66
-108 84 -136 109 -150 138 -9 19 -34 49 -57 66 -22 18 -66 57 -96 88 -30 30
-68 64 -83 73 -15 10 -30 30 -34 45 -11 46 -40 95 -78 131 -89 85 -171 244
-201 392 -23 111 -15 246 20 353 15 48 26 103 26 137 0 32 6 75 14 95 8 21 21
63 30 93 10 30 19 61 22 68 3 10 13 6 34 -15 16 -15 40 -37 52 -49 13 -11 56
-59 95 -107 47 -55 88 -94 115 -108 24 -12 64 -39 90 -61 26 -21 65 -46 85
-55 21 -8 57 -33 80 -54 24 -22 50 -39 59 -39 9 0 35 20 58 44 52 52 73 57
386 80 437 33 544 28 595 -25 12 -13 36 -64 53 -114 60 -175 70 -198 95 -219
53 -44 66 -92 77 -290 9 -142 12 -162 31 -182 17 -18 24 -42 29 -101 15 -146
11 -140 125 -208 13 -8 19 -27 21 -72 4 -67 46 -188 69 -197 36 -14 197 -17
349 -7 207 14 216 16 216 48 0 40 -25 76 -88 125 -34 26 -76 71 -95 100 -23
37 -48 60 -80 77 -47 24 -85 69 -110 131 -22 52 -41 146 -33 165 5 15 9 15 39
-4 18 -11 55 -22 82 -25 28 -3 90 -10 138 -15 166 -18 227 -90 245 -285 7 -72
15 -105 30 -125 11 -15 31 -49 45 -77 21 -41 38 -57 96 -92 39 -23 73 -42 77
-42 4 0 22 -11 41 -26 24 -18 33 -33 33 -53 0 -52 13 -54 243 -55 176 -1 222
2 269 17 58 17 128 68 128 91 0 7 -32 34 -71 61 -44 30 -77 61 -88 84 -28 55
-63 86 -129 120 -88 44 -128 83 -147 142 -10 28 -29 65 -44 82 -85 100 -140
199 -141 252 0 17 -6 53 -14 81 -7 29 -11 56 -7 62 3 6 30 19 60 31 94 35 139
74 243 211 19 25 37 52 40 60 17 39 100 130 125 136 16 4 42 22 59 40 18 19
40 34 51 34 26 0 133 120 133 149 0 20 15 10 49 -32 18 -23 58 -62 89 -87 37
-30 59 -56 64 -77 12 -47 70 -90 132 -98 28 -4 65 -16 83 -26 26 -16 42 -19
83 -13 54 7 75 22 111 80 10 18 33 37 49 44 22 9 33 23 42 54 6 22 24 51 40
64 15 13 33 41 39 63 11 36 20 43 88 78 42 21 93 43 113 50 26 9 44 24 61 54
14 23 39 59 56 81 35 44 38 62 15 87 -12 14 -17 46 -19 146 -2 70 -8 148 -13
173 -19 92 -35 146 -53 188 -24 54 -24 83 1 132 24 46 26 107 5 130 -13 15
-10 21 33 66 56 58 133 217 114 236 -16 16 -96 -17 -142 -58 -45 -41 -60 -43
-60 -8 0 99 -50 161 -177 221 -80 38 -91 39 -318 17 -55 -5 -63 -4 -101 24
-23 17 -65 37 -92 46 -28 8 -59 19 -70 25 -27 14 -79 125 -97 208 -9 37 -24
88 -34 113 -10 25 -22 69 -25 99 -4 30 -16 72 -28 95 -48 96 -143 238 -180
270 -22 19 -108 70 -191 114 -151 79 -276 125 -422 156 -39 8 -83 20 -99 26
-49 18 -386 69 -491 74 -55 2 -145 1 -200 -4z m-3791 -911 l35 -20 -34 -31
c-43 -37 -93 -123 -110 -190 -24 -88 -59 -107 -135 -68 -58 29 -84 72 -88 147
-6 82 20 125 92 159 69 32 188 34 240 3z"/>
</g>
</svg>
