<svg height="876pt" preserveAspectRatio="xMidYMid meet" viewBox="0 0 876 876" width="876pt" xmlns="http://www.w3.org/2000/svg"><g fill="#1d1e20" transform="matrix(.1 0 0 -.1 0 876)"><path d="m1330 4454v-4295l40 22c22 13 40 28 40 34s11 18 25 25 25 17 25 22c0 4 6 8 13 8s18 9 25 20c6 11 30 29 52 40s41 25 41 30c1 6 2 15 3 21 2 17 37 39 62 39 13 0 26 5 29 11 4 5 12 8 18 6 15-5 47 11 47 24 0 5-11 7-24 3-13-3-26-2-29 4-7 10 96 48 158 58 51 8 79 23 50 25-11 1-24 0-30-1-40-9-73-7-69 3 4 11 92 41 154 52 40 7 80 27 75 36-3 4-15 6-28 3-12-2-40-7-62-10-52-8-36 11 24 29 43 12 57 33 21 31-28-1-26 2 24 31 24 14 51 37 60 50 9 14 33 29 56 35 42 11 52 19 90 71 43 58 64 75 115 94 62 23 60 21 45 40-10 12-5 18 39 37 49 22 65 38 39 38-24 1 37 29 110 51 41 13 71 27 69 33-3 6-11 9-18 8-8-2-30-6-49-8l-35-5 35 17c19 9 40 18 45 20 6 1 24 7 40 12 45 15 228 57 243 56 6-1 16-2 20-3 5 0 8-11 8-23-1-20 3-22 28-20 38 5 25-14-17-24-17-4-35-9-39-10-5-1-9-2-10-4-2-1-11-3-22-5-22-4-42-22-34-30 3-3 18-1 33 5s50 13 78 16 60 10 73 14c22 9 34 4 34-12 0-4-11-8-23-8-13 0-27-3-31-7-3-4-16-8-28-10s-49-11-82-20c-34-8-72-17-85-19-13-1-29-8-35-14-15-16 88-7 174 15 167 42 165 42 165 23 0-6-16-13-35-16-34-4-60-17-60-32 0-9 51-6 100 5 58 13 27-5-51-28-40-12-74-28-76-34-5-13 31-10 131 13 34 7 66 9 74 5 12-7 8-10-16-16-31-6-41-18-24-29 4-3 24-1 43 3 18 4 45 5 59 1 25-6 25-6 4-18-12-6-24-9-26-6-3 2-10-2-17-9-9-12-1-13 51-10 70 5 71-3 1-27-53-18-76-48-27-35 16 4 44 9 62 11s42 6 53 9c13 4 19 2 19-8s-17-17-53-22c-52-8-63-10-72-15-3-1-8-3-12-4-71-16-113-30-113-37 0-4-7-6-15-3-8 4-15 1-15-4 0-6 12-9 27-6 142 24 157 27 251 52 40 11 74 17 76 13 7-11-8-26-29-29-28-4-38-7-51-14-5-4-29-9-53-12-39-5-91-18-131-33-20-8-40-12-67-15-13-1-23-5-23-9 0-3-11-5-24-4-30 4-54-11-41-24 7-6 34-3 80 9 70 18 233 58 270 65 109 23 135 24 135 3 0-5-9-6-20-3-15 5-20 2-20-11 0-14 7-16 50-11 28 3 50 2 50-2 0-11-55-31-81-31-11 0-19-7-19-15 0-13 10-14 58-9 31 4 59 7 62 6 38 0 52-3 46-9-8-8-13-10-44-12-21-1-59-27-52-34 3-3 25-1 50 4 81 17 100 18 100 9 0-8-24-14-32-8-2 1-14-4-27-11s-38-15-55-18c-17-2-56-11-86-20-30-8-68-17-85-20-16-3-37-9-46-14-9-4-20-5-24-1s-5 0-3-8c3-8 11-14 18-12 6 1 24 4 38 7 31 5 67 13 67 15 0 3 42 10 85 14 25 2 57 9 73 15 15 6 27 8 27 5 0-2 13 2 30 11 31 16 91 21 75 6-15-14-89-37-146-45-14-2-57-14-95-26-75-23-71-22-161-40-35-7-63-17-63-21 0-5 5-10 10-10 6-1 16-2 23-3 6-1 26 2 42 7 17 5 58 15 93 23s71 18 81 23c9 5 39 12 67 15 27 3 76 12 109 20 82 21 112 20 125-4 6-11 19-20 30-20 21 0 39-20 18-20-7 0-21-7-32-15-17-13-12-14 42-10 54 3 62 1 67-16 4-10 13-19 21-19s14-4 14-9c0-10-22-19-66-27-15-3-34-9-43-13-9-5-32-12-51-15-19-4-42-8-50-10-23-5-18-31 5-28 57 8 67 11 79 21 10 8 96 23 136 23 34 1 50-4 45-11-9-16 28-31 48-20 10 6 30 9 45 7l27-4-27-12c-42-18-37-43 7-36 42 6 46-2 8-18-33-13-36-14-88-22-22-4-47-8-55-11-8-2-27-6-43-9-68-12-149-45-141-57 5-9 55-1 64 10 3 3 14 7 25 9 11 1 40 5 65 8s52 8 60 11c8 4 26 7 40 9 38 4 152 31 181 42 27 11 39 7 39-10 0-5-4-7-8-4-5 3-38-4-73-15-35-12-70-23-76-25-7-2-13-7-13-12 0-10 64-8 97 2 14 4 23 1 26-8 4-11-1-14-21-12-15 1-35-5-46-13-10-9-20-15-22-13-10 6-22 1-28-13-4-12 3-13 42-8 26 3 51 10 57 14 5 5 17 9 27 9s18 4 18 8 27 9 59 10c33 1 78 6 100 11 23 5 39 5 36 1s-21-11-42-15c-45-8-74-27-65-42 7-11 62-6 62 6 0 10 39 11 45 1 3-5-13-14-35-21s-39-17-37-23c5-15 53-15 105 0 23 6 42 10 42 7s7 0 14 7c11 8 20 9 33 1 17-10 17-10 1-12-20-2-26-3-48-11-32-12-98-28-133-32-21-3-43-9-50-13-6-4-23-9-37-11-31-4-54-22-42-34 5-5 27-3 53 6 24 8 65 17 91 21 26 3 50 10 53 15 3 4 13 7 23 5 9-1 23 3 31 9s26 11 40 12c14 0 50 4 80 8 39 6 52 5 47-3-4-6-11-9-16-6s-11 1-15-5c-3-5-17-10-30-10s-27-5-31-11c-10-17 17-29 39-17 10 5 21 7 24 4 4-3 12-1 18 4 7 6 32 13 56 16s48 10 54 15c5 5 29 9 55 10 25 0 54 4 65 8 11 5 26 6 34 3 9-3-1-10-25-17-25-7-40-17-42-29-4-17 1-18 34-13 25 4 34 3 27-4-6-6-26-13-44-16-19-3-38-8-44-13-5-4-26-10-45-13-78-12-125-31-115-47 6-10 39-6 110 15 28 8 77 19 110 26 33 6 66 16 74 23 8 6 16 10 18 9 10-8 23-1 23 11 0 8-9 12-25 11-40-5-29 11 18 24 114 30 126 31 146 5 10-13 20-22 22-20 2 3 24 7 48 11 40 6 43 5 31-9-7-9-15-14-18-11-7 6-32-15-32-27s61-3 160 24c41 11 89 22 105 25 58 8 145 38 142 48-2 5-13 10-25 9-30-1-16 15 32 36 36 15 121 33 163 35 19 0 36 22 28 34-3 6-10 9-14 7-4-3-18-7-32-10-13-2-44-9-69-15s-56-11-70-11h-25l29 15c15 8 34 15 41 15s18 7 26 16c19 23-6 35-40 18-45-24-63-14-76 38-6 22-3 27 17 30 19 2 23 9 22 38 0 19-6 45-12 57-20 36-15 73 8 73 11 0 20 5 20 10 0 6 7 10 15 10s15 4 15 8c0 18-14 21-34 8-12-7-29-10-41-6-18 6-17 9 13 24 17 9 32 14 32 11s16 2 36 10 40 13 44 10c5-3 11-1 15 5 3 5 15 10 26 10 25 0 25 16-1 23-11 3-20 1-20-3 0-5-8-7-17-5-10 1-29-2-43-7-14-6-43-12-65-14l-40-4 30 14c17 8 57 22 90 32 76 23 70 21 106 23 23 1 30 5 27 19-2 9-8 16-14 15-5 0-23-3-41-6-17-3-37-8-42-12-10-5-15 7-12 28 1 8-21 10-94 9l-50-1 40 19c22 10 50 19 63 19 23 1 27 8 14 27-5 8-14 9-32 1-50-20-68-16-74 17-5 24-2 34 15 47 23 17 18 42-6 32-9-3-21 0-29 6-11 9-15-2-20-60-4-39-10-69-13-66-8 9-9 138-1 187 14 83 15 142 2 155-15 15-8 26 12 18 8-3 14-19 14-39v-34l33 19c37 21 43 47 10 45-32-2-29 9 7 24l30 14-22 18-23 18 28 7c15 4 27 11 27 15 0 11-30 21-41 14-5-3-9-1-9 5 0 12 52 41 75 41 8 0 15 4 15 9 0 13-16 22-23 14-4-3-26-7-49-9l-43-3 28 15c31 17 34 29 10 43-15 9-16 12-4 20 9 6 11 18 7 35-6 23-3 26 36 36 62 16 68 18 68 29 0 18-21 23-37 9-9-7-18-12-20-10-1 1-4 2-5 1-19-5-44-7-51-2-14 8 50 43 81 43 30 1 62 21 62 39 0 15-5 14-40-4-17-9-30-13-30-11 0 3-18-1-40-9s-42-10-45-5c-5 8 12 18 88 49 38 15 26 33-14 19-16-6-33-7-36-4-4 4-9 32-11 64-3 45 0 61 12 71 23 19 20 41-4 36-31-6-24 3 18 21 43 19 64 23 75 17 13-8-13-32-28-27-18 7-31-16-15-26s70 12 82 34c8 14 11 14 23 2 8-8 25-13 37-11 89 13 132 17 125 10-4-5-15-10-25-11-30-4-75-15-84-20-20-13 6-23 45-17 23 4 51 7 61 7 11 0 28 15 39 33 10 18 26 33 35 33 10 0 29 6 43 14 21 11 79 27 111 30 4 1 13 7 19 14 7 6 23 12 35 12s50 7 83 16c78 19 98 24 140 30 43 6 51 11 45 29-4 8-10 12-16 9-5-3-24-8-41-11-39-6-48-8-67-16-8-3-22-5-30-5s-28-3-44-7c-21-6-27-5-22 4 4 6 14 11 23 11 8 0 36 7 62 15 25 9 84 26 130 39 47 12 87 29 89 36 3 9-3 11-21 8-22-4-37 6-37 27 0 1 18 3 39 3 22 0 48 6 59 13 20 12 20 15-5 58-2 2-10-2-20-10-17-13-17-13-2 10 9 14 35 41 59 60 35 29 41 31 27 11-9-13-17-34-16-45 0-11 3-15 5-8 4 8 13 9 27 4 22-8 46-7 73 3 10 4 12 13 8 31-5 21-2 27 14 32 15 3 22 15 24 36 3 28 8 32 46 42 43 10 57 29 24 31-9 1-23 2-29 3-25 2-13 19 17 25 39 7 39 26-1 26-45 0-31 22 24 38 28 8 47 19 47 27 0 11-6 12-26 5-34-13-44-6-44 35 0 24 6 38 20 45 11 6 20 15 20 21s-4 8-9 5c-4-3-17 1-27 9-18 14-18 14 3 15 25 0 39 15 23 25-19 12-11 41 12 42 28 3 78 23 78 33 0 11-53 9-67-2-15-12-43-4-43 12 0 5 12 10 26 10 16 0 24 5 22 13-4 11-8 13-44 16-9 0-14 7-11 14 2 6 10 11 17 9 7-1 17 2 24 7 6 5 29 12 51 15 39 7 71 25 47 27-7 1-18 2-24 3-7 1-22-1-34-5-36-13-84-18-84-9 0 5 9 12 20 15 19 6 29 35 13 35-5 0-9 10-10 23-1 12-4 31-5 42-2 14 4 21 20 23 29 4 23 27-6 27-62 1 18 44 86 47 20 1 32 6 32 16 0 11-9 12-42 8-119-18-115-18-122 15-8 41-4 46 49 53 43 7 56 18 35 31-5 3-10 0-10-7 0-8-3-9-8-3-4 6-17 10-30 9-12-1-25 3-28 7-3 5 0 9 7 9s9 10 6 30c-4 17-2 31 3 31 6 1 14 2 19 3 20 2 22 15 3 25-11 6-22 7-26 4-3-3-6 1-6 9 0 10 13 18 38 23 58 10 112 27 112 36 0 14-35 15-68 2-33-14-78-4-53 11 6 4 11 18 11 31 0 12 7 26 16 29 8 3 14 14 13 23-3 32 1 42 19 47 12 4 18 16 17 34 0 21 5 28 23 30 25 4 29 17 7 26-8 3-12 12-9 20 5 12 16 18 67 31 4 2 16 3 27 4 11 0 20 5 20 11 0 9-74 5-90-5-4-3-13 2-20 10-11 13-8 15 14 15 25 0 26 2 27 63 1 57 2 59 11 28 8-30 11-32 24-19 11 11 12 20 3 46-17 49-9 65 40 77 25 6 46 16 49 23 4 14-26 16-47 3-22-14-42-2-31 18 5 10 6 27 3 39-4 18-1 22 16 22 20 0 25 8 22 41-1 9 11 22 29 29 42 17 40 41-2 34-28-4-30-3-10 5 14 7 22 19 22 35 0 14 9 31 22 40 17 12 20 18 10 28-32 32 3 107 51 108 9 0 17 5 17 11 0 7-11 9-31 5-28-5-30-4-23 17 4 12 7 30 6 40 0 10 9 22 24 27 27 11 31 25 9 34-12 4-13 10-6 24 7 13 7 22-1 30-14 14-2 32 22 32 10 0 22 5 25 11 4 6 13 8 21 5 18-7 30 14 13 24-7 5-20 5-28 1-14-6-25-7-47-2-3 0 1 8 9 16 9 8 13 24 10 35-4 15 0 20 14 20 10 0 23 4 29 9 5 5 25 11 44 13s34 8 32 13c-3 14-29 13-82-2-51-14-73-4-35 17 28 15 34 40 8 40-15 0-14 2 3 15 10 8 27 15 36 15 23 0 68 21 68 32 0 5-16 8-35 6-19-1-35-6-35-11 0-18-35-1-36 18-1 11-5 27-8 36-5 12-1 18 14 22 12 3 19 10 16 16-4 6-12 8-19 6-17-7-41 11-33 24 4 6 13 10 19 9 7-2 13 2 15 7 1 6-11 11-27 12-34 1-71 19-71 34 0 5 7 20 16 33 10 16 12 26 5 31-6 3-11 2-11-3s-7-9-15-9c-10 0-15 10-15 28 0 15-4 30-10 34-5 3-7 12-4 19 3 8-7 18-24 25-33 14-58 52-49 75 4 9 2 16-3 16-6 0-10 8-10 18 0 31-30 82-48 82-14 1-12 5 7 20 13 11 29 20 37 20s14 5 14 10c0 7-16 9-40 7-27-3-40 0-40 8 0 7 7 15 15 19 21 8 19 23-2 23-71 0-66 17 7 27 31 4 50 12 50 20 0 22-10 25-43 12-18-7-43-10-57-6l-25 7 28 12c29 11 28 34-1 29-9-2-22 8-29 22-9 17-19 24-35 22l-23-2 23 16c21 16 32 42 12 29-13-8-61 5-54 16 3 5 17 9 30 9 30 0 28 24-2 26-46 2-47 3-34 19 18 22 2 40-20 20-15-14-19-14-30 0-10 12-9 16 4 21 9 4 21 14 26 24 8 16 5 17-28 13-34-3-36-3-18 11 10 9 23 17 29 19s7 9 3 16c-6 8-11 9-21 1-13-11-45-4-45 10 0 5 5 12 10 15 16 10 1 25-25 25-14 0-29 8-35 19-15 29-12 41 9 41 11 0 22 4 25 9 8 12-20 22-38 15-21-8-52 66-34 78 7 4 19 8 26 8 6 0 12 5 12 10 0 6-18 10-40 10-42 0-49 7-28 28 10 10 8 14-10 19-16 4-21 11-17 23s-1 19-17 24l-23 6 24 13c29 15 29 31 1 35-11 2-20 11-20 21 0 9-6 23-12 29-10 10-8 14 10 18 12 4 22 13 22 21s-4 12-8 9c-4-2-14-1-22 4-12 7-11 12 4 28 18 21 18 44-4 112-5 19-13 63-16 97-5 53-3 62 9 57 8-3 18 0 23 7 4 7 2 15-4 17-23 7-12 31 16 34 36 4 25 24-12 20-51-4-12 23 59 43 68 18 87 32 64 46-8 4-16 4-20-3-4-5-21-11-38-12-17 0-31-3-31-7 0-3-6-6-12-7-7 0-22-2-33-4-17-2-21 3-23 35-3 32 0 37 18 37 22 0 24 24 2 26-23 3-24 4-12 19 8 9 9 25 5 42-5 16-9 44-11 63s-6 51-10 70-8 40-9 45c-1 6 6 25 17 43 15 28 15 34 3 38-8 3-19 3-25-1-5-3-11-1-11 4-2 14-4 22-12 41-3 8-12 35-20 60-7 25-19 45-25 45-5 0-14 3-18 8-4 4-2 7 5 7 16 0 9 25-7 26-7 1-16 2-22 3-5 0-10 8-10 16s-10 20-22 26c-47 25-61 63-28 72 11 3 20 11 20 17 0 8-9 10-24 6-19-5-25-1-30 19-4 15-11 22-20 19-20-8-28 12-11 26 21 17 9 31-21 24-14-4-25-2-25 5-1 6-2 16-3 21 0 6-3 9-6 8-18-6-51 28-60 62-6 22-15 40-20 40-21 0-26 2-42 17-9 8-20 28-23 43-4 20-11 27-24 23-11-3-22 5-30 21-11 20-17 23-33 15-15-8-20-5-28 16s-15 25-37 22c-17-2-37 3-52 14-13 11-31 19-40 19s-26 7-38 15c-18 12-42 21-74 24-4 1-9 11-12 23-5 17-9 19-20 9-19-15-43-5-52 22-6 20-7 21-14 4-6-17-8-18-20-3-11 13-17 14-28 4-12-10-18-9-29 7-8 10-14 25-14 33 0 12-5 11-21-4-12-10-24-17-28-16-3 2-14 9-25 14-15 8-16 12-5 19 25 15-1 22-38 11-31-9-39-9-45 3-14 24-39 45-48 40-5-3-13 3-19 13-7 13-20 18-47 17-25-1-45 5-58 16-10 10-29 17-40 15-12-2-34 3-50 11-15 8-40 17-55 19-14 3-31 11-37 19s-21 15-33 15c-13 0-26 10-33 25-14 30-28 33-28 5 0-24-13-26-30-5-7 8-16 12-21 9s-9-1-9 4-9 19-20 32-20 32-20 42c0 30-37 102-59 116-12 7-21 17-21 23 0 11-12 27-52 71-16 16-28 35-28 43 0 7-7 29-16 50-11 28-20 36-34 32-12-3-21 3-28 18-8 17-17 22-38 19-15-1-36 3-48 10s-26 12-32 12c-17-1-65-64-99-131-8-17-31-45-49-63-29-27-36-29-46-17-8 10-17 12-29 5-13-6-27-3-52 14-19 13-46 23-60 22-32-1-175 66-194 92-6 7-30 14-53 15-24 1-46 7-50 13-12 19-80 46-101 39-10-3-22-1-26 5-5 8-11 7-22-1-12-10-16-10-24 2-5 8-9 20-9 27s-10 17-22 21c-31 12-408 14-408 3 0-5 7-16 16-23s33-38 54-69c41-61 41-60 185-120 55-23 132-57 170-75 39-17 83-35 99-39s53-23 82-42c30-18 60-34 67-34 6 0 32-14 56-30 24-17 60-35 80-40 44-13 96-54 87-69-4-6-12-9-17-6-14 9-44-25-68-75-25-54-44-80-60-80-6 0-11-4-11-8 0-5-18-28-40-52-33-36-38-46-29-63 10-18 9-19-10-14-18 4-25-2-43-43-12-27-25-47-29-44-5 3-22-14-39-37-16-23-30-39-30-35s-14-4-31-18c-35-30-49-32-88-11-16 8-41 17-57 20s-34 7-40 8c-7 2-19 9-28 16s-29 11-46 9c-16-2-31 0-33 5-1 5-17 11-34 12-38 3-114 39-135 63-18 21-28 47-34 87-8 53-35 169-45 194-9 21-8 23 5 12 11-9 16-9 22 0 11 18-57 76-103 88-21 6-62 32-91 58-30 26-63 48-74 50-20 3-99 60-106 75-2 5-10 8-18 8s-14 4-14 10c0 5-11 12-25 16-14 3-25 10-25 16 0 5-6 8-13 6s-37 15-66 37c-30 22-63 47-75 55-49 34-134 99-147 112-8 8-35 28-61 46l-47 32h-520-521zm3264 3930c9-3 16-10 16-15s11-26 24-47c15-24 24-53 24-82 1-28 7-49 16-56 20-14 21-28 2-21-20 8-28-4-14-20 15-18 14-128-1-147-10-11-9-16 5-24s15-14 7-24c-5-7-13-25-17-40-3-16-10-28-14-28s-5-25-4-55c3-40-1-63-13-82-16-24-16-28-2-38 13-9 11-14-14-38-26-24-30-36-33-90-4-64-21-116-43-130-10-6-10-12-1-27 10-15 10-22 0-32-6-6-12-20-12-30s-5-18-11-18c-7 0-8-11-4-31 6-28 5-30-14-24-12 4-21 2-21-4s4-11 9-11c6 0 21-22 35-50l25-50h-21c-27 0-11-20 18-24 11-1 27-19 37-39 9-21 26-46 37-57s20-24 20-29c0-9 34-47 63-70 16-12 21-11 47 14 21 20 30 38 30 61 0 18 9 48 20 68 14 22 17 37 10 41-14 9-13 68 3 87 6 9 19 18 27 19 20 4 60-10 60-21 0-5 10-12 21-15 32-10 150-89 177-118 24-25 71-147 72-183 0-12 7-41 15-64 14-41 14-43-13-80-15-22-35-41-44-43-10-3-18-13-18-22 0-10-12-29-27-42-22-21-30-23-49-14-15 6-25 7-29 1s-1-10 4-10c6 0 11-7 11-15s-3-14-7-13c-5 1-21-6-37-17-28-19-41-23-78-27-10-1-18-6-18-11s-16-6-36-2c-32 6-35 4-30-13 6-18 2-20-37-18-23 1-48 6-55 10-6 4-21 2-32-4-42-22-148 3-182 44-13 15-20 18-25 9-12-17-63-4-63 16 0 11-15 21-46 30-75 22-239 188-189 192 32 3 35 4 33 14-2 6-20 10-41 10-27 0-43 6-53 19-19 26-18 46 3 46 9 0 13 3 9 8-8 7-13 8-42 11-11 1-13 7-9 21 6 18 3 20-20 14-24-6-26-4-21 14 4 12 1 26-9 35-21 22-19 37 6 37 12 0 19 5 16 13-2 7-15 11-31 9-26-3-27-3-20 35 4 21 11 40 15 43s8 14 8 25c-1 41 9 76 25 94 9 10 14 25 11 32-3 8 6 36 19 63s22 55 19 62c-3 9 2 14 16 14 16 0 21 6 21 24 0 14 5 28 10 31 6 4 8 15 5 26-4 13-2 19 9 19 9 0 16 5 16 11 0 20 52 121 66 126 7 3 12 15 10 26-2 14 4 28 17 39 17 13 19 19 8 31-10 13-8 23 13 56 14 22 39 55 56 74 17 20 26 38 21 41-6 4-5 17 4 34 7 15 22 45 33 67s23 51 27 65 17 33 29 42c18 15 19 19 6 28-13 8-12 12 8 25 15 11 22 26 22 51 0 30 3 34 25 34s24 3 19 29c-4 18 0 38 11 55 18 27 24 30 49 20zm347-475c8-15 16-19 32-14 12 4 36 6 52 6 32-1 190-42 265-69 25-9 53-17 63-18 26-2 130-35 144-46 7-5 21-7 31-4 11 4 24 0 32-9 7-8 21-15 31-15s21-5 24-10c4-6 12-9 18-8 7 2 41-6 76-17 65-20 151-83 151-110 0-8 17-27 38-42 20-15 45-37 54-48 10-11 21-23 25-27 77-67 138-141 175-213 33-65 78-203 77-235-1-30 4-49 18-75 5-11 11-41 12-67 0-26 5-58 11-72 5-14 12-61 15-103 4-43 11-100 17-128 6-27 12-72 14-100 2-27 8-51 13-53 8-3 8-10 0-23-12-23-6-69 27-226 23-109 34-185 34-230 0-12 5-25 10-28 6-3 10-13 10-22 0-8 12-32 28-52 38-50 49-69 72-120 12-24 36-65 54-90 19-26 47-78 62-116 16-39 35-74 42-78 16-11 97-135 106-165 4-12 23-43 42-67 19-25 34-52 34-60s6-18 13-22c19-13 96-174 126-266 17-52 16-135-2-156-8-9-14-27-12-41 1-14-2-37-8-53-6-19-5-32 3-42 7-9 8-15 2-15-12 0-53-68-50-83 4-20-12-67-22-67-6 0-10-7-10-16s-17-51-37-93c-38-76-40-81-42-112 0-9-15-32-32-50s-26-35-20-37c16-5 14-42-2-42-8 0-19-11-25-24-14-31-52-29-68 4-7 14-22 45-32 70-11 25-40 67-65 95-25 27-42 55-40 63 3 7-5 25-19 40-31 35-58 78-58 94 0 7-15 29-33 50-32 36-67 117-67 156 0 12-9 23-20 27-21 7-27 21-11 27 5 2-6 26-25 53-19 28-33 60-32 71 3 20-14 63-36 93-21 28-58 148-61 195-2 33-8 52-19 58-9 5-16 18-16 28 0 11-9 43-20 71-15 36-18 55-10 63 5 5 10 18 10 28s5 18 10 18c6 0 10 7 10 15 0 15 97 65 125 65 7 0 15 9 18 20 3 12 14 20 25 20s22 7 26 15c3 8 14 15 25 15 23 0 36 16 21 25-8 5-6 13 4 24 26 29 25 106-2 134-12 13-22 32-22 44 0 11-10 24-25 31-17 8-25 20-25 36 0 18-7 25-29 29-16 3-36 13-44 22-9 8-20 15-26 15-5 0-17 10-25 22-9 12-16 19-16 14s-9 3-21 18c-11 14-27 26-35 26s-14 5-14 10c0 6-9 10-21 10-11 0-47 18-79 41-32 22-64 42-71 43-31 5-59 18-59 27 0 5-5 9-10 9-6 0-24 13-39 29-20 21-35 28-50 24-12-3-31 3-47 16s-36 19-51 17c-14-3-31 2-41 12-22 22-84 52-120 58-15 3-35 12-44 21-10 9-18 13-18 9s-5-4-12 0-22 9-35 10c-13 2-36 12-52 23-16 12-36 21-44 21-9 0-19 5-22 10-4 6-10 8-15 5s-22 9-39 27l-30 32 34 35c19 19 35 38 35 43s7 16 15 24 12 21 9 29c-4 10 0 15 14 15 11 0 22 8 25 20 4 16 10 19 29 12 12-5 47-8 77-7 32 0 55-4 58-10 2-8 20-10 48-8 30 3 51 0 67-11 12-9 37-16 55-16 34 0 205-44 236-61 27-15 97-20 118-8 11 5 19 18 19 29 0 22-44 55-60 45-5-3-13 1-16 9-3 9-10 14-14 11s-10 2-14 10c-3 8-1 15 5 15s6 6-1 19c-6 13-17 17-30 14-13-4-20 0-20 10 0 8-18 26-39 40s-52 44-67 66c-16 22-39 46-52 52-15 9-20 18-16 31 3 12 0 18-9 18-13 0-52 34-84 74-7 8-18 18-25 23-18 11-98 110-98 120 0 4-16 19-35 32s-37 31-40 40-20 25-39 35-37 29-40 43c-4 13-11 21-16 18s-32 16-59 42c-70 67-76 72-108 78-62 11-104 24-169 52-17 7-41 14-53 16s-27 9-33 15c-7 7-18 12-25 12s-19 13-27 29c-13 24-13 38-2 92 10 53 16 65 34 67 23 3 30 28 11 34-14 5-19 67-7 98 5 14 10 59 12 100 2 75 9 100 26 100 5 0 14-9 21-21zm1607-994c-3-3-9 2-12 12-6 14-5 15 5 6 7-7 10-15 7-18zm-2267-282c13-16 12-17-3-4-10 7-18 15-18 17 0 8 8 3 21-13zm-573-67c10-8 27-17 38-19 10-2 26-6 34-9s29-9 45-14c23-8 29-15 27-32-3-17 2-22 21-22 51 0 287-188 313-249 17-42 18-38-8-44-13-4-33 1-48 11-26 17-150 64-150 56 0-2-17 3-37 11-21 8-49 17-63 19-14 3-25 5-25 6 0 4-80 10-175 13-103 3-104 3-132-25-15-15-37-30-50-31-12-2-24-10-26-17-5-14-99-106-151-147-19-16-46-40-60-56-23-25-25-26-43-10-10 9-23 33-30 55-11 39-3 70 38 149 12 24 12 28-2 33-8 3-13 10-9 15 3 6 12 8 19 5 20-8 32 17 14 27-27 15 0 74 47 101 22 12 44 21 48 20 5-1 6 7 2 18s-2 20 4 20 24 14 41 30c17 17 35 30 40 30s30 12 56 26 57 27 71 29c13 1 29 7 35 13 15 15 96 7 116-12zm873-73c13-16 12-17-3-4-10 7-18 15-18 17 0 8 8 3 21-13zm1181-818c29-14 46-25 38-26s-28-2-45-3c-16-2-42-8-57-14-24-10-57-10-112 1-35 7-29 27 13 45 58 26 102 25 163-3zm-542-245c14-33 48-63 62-54 4 3 8-2 8-10 0-9 5-16 11-16s23-13 38-29c17-18 52-37 92-49 161-52 204-71 201-89-7-35-54-138-67-145-7-4-10-18-8-31 3-17-4-33-26-55-17-17-31-38-31-47 0-14-3-15-14-6-8 7-31 13-51 15-21 2-41 9-45 16-4 6-10 11-14 11-3-1-10-1-14-1-18 0-102 129-102 157 0 16-4 33-9 39-6 5-14 34-19 64-6 30-19 84-30 120-28 95-28 95-14 93 15-4 15 2 2 28-8 15-7 19 3 19 8 0 20-14 27-30zm1837-212c-3-8-6-5-6 6-1 11 2 17 5 13 3-3 4-12 1-19zm53-118c0-5-2-10-4-10-3 0-8 5-11 10-3 6-1 10 4 10 6 0 11-4 11-10zm-1265-1170c3-6-1-7-9-4-18 7-21 14-7 14 6 0 13-4 16-10zm1095-390c0-5-7-7-15-4-8 4-15 8-15 10s7 4 15 4 15-4 15-10zm-335-30c3-5 1-10-4-10-6 0-11 5-11 10 0 6 2 10 4 10 3 0 8-4 11-10zm321-78c-11-10-14 3-8 33l7 30 3-28c2-16 1-31-2-35zm-3656-72c0-5-5-10-11-10-5 0-7 5-4 10 3 6 8 10 11 10 2 0 4-4 4-10zm3584-276c3-8 2-12-4-9s-10 10-10 16c0 14 7 11 14-7zm3-116c-3-8-6-5-6 6-1 11 2 17 5 13 3-3 4-12 1-19zm-251-54c10-14 18-44 18-67 1-37-2-42-21-42-12 0-25-4-29-8s-2-7 4-7c17 0 43-31 35-43-4-6-6-30-4-54 2-32-1-43-12-43-8 0-17 7-21 15-3 8-12 12-21 9-9-4-25 6-42 25-15 17-33 31-39 31s-18 8-28 18c-23 26-105 17-107-11-2-29-10-60-23-85-8-17-12-51-10-89 2-35-1-65-7-68-5-4-9-21-9-40 0-36 36-75 69-75 10 0 22-5 28-11 20-20-63-76-125-84-26-3-36 1-48 21-9 13-21 21-26 18-6-4-5 2 1 14 11 20 9 52-5 127-5 26-2 36 9 41 9 3 23 23 31 45 9 22 20 38 24 35 4-2 14 0 22 5 13 8 13 11-1 22-15 11-15 17-4 44 7 17 18 34 24 37 6 4 11 16 11 27 0 27 91 154 100 139 4-7 17-1 38 18 25 23 104 57 144 61 4 1 15-11 24-25zm264 0c0-8-5-12-10-9-6 4-8 11-5 16 9 14 15 11 15-7zm-3-102c1-37 4-76 8-87 3-11 0-28-8-39-12-17-14-15-17 25-6 88 0 169 12 169 2 0 4-30 5-68zm-587-66c0-3-4-8-10-11-5-3-10-1-10 4 0 6 5 11 10 11 6 0 10-2 10-4zm434-62c4-10 1-14-6-12-15 5-23 28-10 28 5 0 13-7 16-16zm-475-27c-11-25-39-45-39-28 0 12 41 63 47 58 2-3-2-16-8-30zm621-158c0-21-16-24-40-9-12 8-11 10 7 10 17 0 21 4 16 17-4 11-3 14 5 9 7-4 12-16 12-27zm-515 11c3-5 1-10-4-10-6 0-11 5-11 10 0 6 2 10 4 10 3 0 8-4 11-10zm484-71c-25-16-33-9-13 10 10 10 21 14 23 8 2-5-3-13-10-18zm-486-6c5-26 4-26-9-9-7 10-11 23-8 27 8 14 11 11 17-18zm57-13c0-5-8-10-17-10-15 0-16 2-3 10 19 12 20 12 20 0zm438-40c-7-10-15-17-19-15-3 3-11-6-17-20-11-24-52-53-52-36 0 5 11 19 25 32 13 13 25 29 25 35 0 16 21 33 36 27 10-4 11-9 2-23zm-1508 0c0-5-5-10-11-10-5 0-7 5-4 10 3 6 8 10 11 10 2 0 4-4 4-10zm1133-340c-3-11-7-20-9-20s-4 9-4 20 4 20 9 20 7-9 4-20zm-556-169c1-12-7-21-20-25-30-8-32-1-6 23 27 25 24 25 26 2zm-307-446c-7-8-18-15-24-15s-2 7 8 15c25 19 32 19 16 0zm-18-77c-10-10-10-8-2 37 1 6 4 2 7-9 3-10 0-23-5-28zm-2842 4c0-4-10-13-22-21-23-14-23-14-4 8 20 22 26 25 26 13zm41-5c-1-12-15-9-19 4-3 6 1 10 8 8 6-3 11-8 11-12zm84-41c-11-8-23-12-27-10s-9 0-13-6c-3-5-17-10-30-10s-26-4-29-9c-4-5-14-8-24-6-9 1-22-1-27-6-6-4-16-4-23 0-20 12 109 57 172 60 20 1 20 1 1-13zm-405-146c0-5-4-10-10-10-5 0-10 5-10 10 0 6 5 10 10 10 6 0 10-4 10-10zm867-132c-3-8-6-5-6 6-1 11 2 17 5 13 3-3 4-12 1-19zm-1085-70c-7-7-12-8-12-2 0 14 12 26 19 19 2-3-1-11-7-17zm-22-21c0-2-12-14-26-28l-27-24 18 28c14 22 35 36 35 24zm1445-127c3-5 1-10-4-10-6 0-11 5-11 10 0 6 2 10 4 10 3 0 8-4 11-10zm2038-81c-5-5-20-12-34-14-13-3-36-7-51-10-45-10-41 13 4 26 24 6 52 14 63 19 22 8 33-6 18-21zm-139-86c4-50 3-94-2-96-4-3-9 25-10 63s-2 73-3 77-1 19 0 32c2 47 9 15 15-76zm-1529-143c3-6-1-7-9-4-18 7-21 14-7 14 6 0 13-4 16-10zm1545-4c0-2-6-9-13-15-10-8-14-7-14 4 0 8 6 15 14 15 7 0 13-2 13-4zm-3948-21c0-5-5-11-11-13s-11 4-11 13 5 15 11 13 11-8 11-13zm-59-50c-25-19-28-11-6 18 13 19 19 21 21 10 2-8-5-21-15-28zm3991-11c5-14 4-15-9-4-17 14-19 20-6 20 5 0 12-7 15-16zm-1354-34c0-5-5-10-11-10-5 0-7 5-4 10 3 6 8 10 11 10 2 0 4-4 4-10zm1370-43c0-8-6-14-13-14-8 0-14 6-14 14 0 7 6 13 14 13 7 0 13-6 13-13zm-4115-7c-3-5-12-10-18-10-7 0-6 4 3 10 19 12 23 12 15 0zm2950-18c-19-16-96-33-118-26-18 6-11 10 33 19 69 15 97 17 85 7zm85-2c0-5-7-7-15-4-8 4-15 8-15 10s7 4 15 4 15-4 15-10zm-3113-42c-3-8-6-5-6 6-1 11 2 17 5 13 3-3 4-12 1-19zm4196-48c-4-4-19-11-33-14l-25-7 23 17c27 20 29 38 2 29-16-5-20-2-20 15 0 12 3 19 8 17 4-3 16-1 27 3 17 6 21 2 23-23 2-16 0-33-5-37zm-893 25c0-12-19-12-23 0-4 9-1 12 9 8 7-3 14-7 14-8zm-150-14c0-12-20-25-27-18s6 27 18 27c5 0 9-4 9-9zm316-14c4-4-5-7-19-7-15 0-27 4-27 10 0 11 35 8 46-3zm399-1c7 3 16 1 19-5 11-17-14-23-45-10-22 8-27 14-17 20 7 5 17 4 22-1 4-4 14-6 21-4zm233-11c2-15 1-16-6-7-5 8-12 13-16 13-20-3-26 0-21 10 11 16 39 6 43-16zm-468 11c0-3-4-8-10-11-5-3-10-1-10 4 0 6 5 11 10 11 6 0 10-2 10-4zm210-56c0-5-4-10-10-10-5 0-10 5-10 10 0 6 5 10 10 10 6 0 10-4 10-10zm155-19c-3-3-11-6-18-7s-20-5-29-9c-10-4-18-3-18 3s10 12 23 14c34 5 48 5 42-1z"/><path d="m4380 160c0-5 5-10 10-10 6 0 10 5 10 10 0 6-4 10-10 10-5 0-10-4-10-10z"/></g></svg>