<?xml version="1.0" standalone="no"?>
<!DOCTYPE svg PUBLIC "-//W3C//DTD SVG 20010904//EN"
 "http://www.w3.org/TR/2001/REC-SVG-20010904/DTD/svg10.dtd">
<svg version="1.0" xmlns="http://www.w3.org/2000/svg"
 width="1067.000000pt" height="1067.000000pt" viewBox="0 0 1067.000000 1067.000000"
 preserveAspectRatio="xMidYMid meet">
<metadata>
Created by potrace 1.14, written by Peter Selinger 2001-2017
</metadata>
<g transform="translate(0.000000,1067.000000) scale(0.100000,-0.100000)"
fill="#000000" stroke="none">
<path d="M6447 8194 c-2 -2 -21 -6 -43 -9 -21 -3 -55 -8 -74 -11 -19 -3 -44
-7 -55 -9 -11 -1 -37 -7 -58 -13 -20 -6 -37 -8 -37 -6 0 3 -8 0 -17 -5 -10 -5
-36 -12 -58 -16 -47 -8 -47 -8 -105 -25 -25 -7 -49 -14 -55 -15 -5 -1 -17 -4
-25 -7 -8 -4 -49 -17 -90 -29 -41 -12 -104 -36 -140 -52 -36 -17 -67 -31 -70
-32 -3 0 -15 -6 -26 -13 -12 -6 -24 -8 -28 -5 -3 3 -6 1 -6 -5 0 -7 -6 -12
-12 -12 -12 0 -82 -27 -173 -65 -16 -7 -41 -18 -55 -23 -14 -6 -56 -25 -95
-42 -89 -41 -118 -53 -127 -54 -3 -1 -10 -4 -14 -8 -4 -5 -13 -8 -20 -8 -7 0
-25 -5 -41 -12 -15 -6 -31 -12 -35 -12 -4 -1 -43 -25 -87 -53 -44 -29 -82 -53
-84 -53 -8 0 -181 -102 -211 -124 -17 -13 -71 -45 -120 -71 -49 -26 -103 -55
-120 -66 -84 -50 -131 -70 -153 -64 -13 3 -23 2 -23 -2 0 -5 -60 -9 -133 -10
-72 0 -208 -3 -302 -4 -93 -2 -201 0 -240 4 -112 11 -231 25 -300 33 -27 4
-92 7 -142 8 -51 0 -93 4 -93 8 0 4 -10 4 -22 -1 -13 -5 -32 -5 -43 -1 -11 4
-24 5 -29 2 -5 -3 -30 -4 -55 -3 -55 2 -54 2 -111 -2 -25 -1 -51 1 -57 6 -7 5
-13 6 -13 1 0 -5 -48 -10 -108 -10 -197 -2 -337 -13 -432 -35 -25 -5 -48 -10
-52 -10 -4 0 -26 -6 -48 -14 -22 -8 -40 -11 -40 -6 0 8 71 94 82 99 5 2 8 10
8 18 0 8 4 14 8 14 5 0 15 12 23 28 8 15 16 29 19 32 4 3 14 27 24 53 40 107
8 249 -73 322 -34 29 -41 7 -39 -121 1 -121 -10 -169 -50 -224 -33 -44 -49
-57 -92 -77 -41 -18 -69 -21 -260 -28 -80 -2 -217 -7 -305 -10 -258 -9 -308
-14 -375 -36 -72 -23 -196 -83 -217 -105 -8 -8 -19 -14 -24 -14 -5 0 -40 -32
-78 -70 -114 -115 -151 -208 -152 -383 0 -59 5 -80 39 -150 22 -45 46 -98 55
-117 9 -20 26 -47 38 -60 12 -14 33 -41 48 -60 31 -41 51 -60 111 -102 25 -18
51 -38 58 -45 7 -7 26 -20 42 -30 17 -9 30 -20 30 -24 0 -17 106 -44 185 -48
11 -1 45 -19 75 -41 30 -22 72 -52 93 -67 45 -33 96 -109 107 -161 5 -20 12
-68 15 -107 6 -69 9 -88 21 -142 3 -16 7 -37 8 -49 2 -11 7 -27 11 -34 5 -8 4
-11 -2 -7 -7 4 -6 -10 3 -38 7 -25 15 -62 18 -83 6 -46 9 -61 52 -257 19 -88
36 -164 37 -170 2 -5 5 -14 8 -20 16 -26 28 -89 32 -162 3 -39 -22 -177 -41
-236 0 -1 -3 -9 -6 -17 -8 -24 -30 -134 -28 -142 1 -6 -14 -97 -23 -133 -10
-44 -19 -72 -28 -82 -5 -7 -6 -13 -3 -13 9 0 -65 -134 -76 -138 -4 -2 -8 -10
-8 -18 0 -8 -4 -14 -8 -14 -17 0 -21 -124 -8 -200 5 -25 10 -56 13 -70 6 -33
6 -235 0 -280 -2 -19 -8 -55 -12 -80 -5 -25 -9 -48 -9 -52 -1 -3 -4 -10 -9
-14 -4 -4 -7 -14 -7 -22 0 -8 -7 -28 -15 -45 -39 -86 -42 -222 -5 -330 13 -37
27 -70 31 -73 5 -3 9 -12 9 -20 0 -8 10 -36 22 -62 24 -51 28 -126 13 -240 -8
-64 -6 -71 33 -147 20 -38 57 -71 97 -86 16 -6 37 -14 45 -18 24 -11 417 -1
565 14 51 6 89 29 69 43 -5 4 -20 24 -33 45 -12 20 -27 37 -32 37 -5 0 -9 4
-9 9 0 6 -14 30 -30 54 -17 25 -30 48 -30 52 0 6 -57 83 -70 95 -3 3 -17 21
-30 40 -13 19 -27 37 -30 40 -8 6 -35 68 -45 100 -5 14 -9 86 -11 160 -2 74
-4 160 -5 190 -2 76 8 131 42 225 16 44 30 85 32 90 1 6 4 12 7 15 3 3 19 31
35 62 17 32 33 58 38 58 4 0 7 5 7 10 0 6 42 75 94 153 51 78 120 188 152 245
33 57 74 120 92 140 19 20 42 58 52 84 29 77 120 192 134 169 12 -18 4 -360
-8 -379 -2 -4 -7 -39 -11 -77 -4 -39 -7 -72 -8 -75 -2 -27 77 -114 174 -190
62 -49 191 -178 219 -220 13 -19 27 -37 30 -40 13 -11 77 -123 143 -250 38
-74 79 -148 90 -165 28 -39 107 -115 121 -115 15 0 51 -57 66 -105 7 -22 18
-47 24 -55 6 -8 25 -41 41 -74 31 -61 76 -105 117 -115 29 -7 420 -4 508 4
195 17 227 36 153 92 -102 77 -162 132 -180 167 -9 17 -41 54 -71 81 -30 28
-78 73 -107 100 -28 28 -79 74 -112 103 -48 41 -65 64 -78 103 -17 50 -62 116
-119 176 -57 58 -134 179 -167 260 -12 32 -28 61 -33 65 -6 4 -8 8 -3 8 4 0 1
15 -6 33 -8 17 -15 35 -15 40 -1 4 -2 8 -3 10 -2 8 -9 41 -22 105 -13 69 -15
255 -3 312 3 14 9 41 13 60 9 46 10 49 13 55 1 3 3 8 5 13 1 4 5 19 9 33 4 14
8 32 10 40 11 55 16 92 20 148 5 52 42 189 73 271 8 19 10 27 12 40 0 7 7 8
16 3 15 -9 166 -153 160 -153 -5 0 63 -77 130 -146 33 -34 74 -69 92 -78 17
-9 61 -38 98 -66 36 -27 86 -61 111 -75 55 -31 97 -57 104 -66 12 -14 94 -69
104 -69 6 0 34 21 61 46 68 61 105 78 205 89 25 3 61 7 80 9 19 2 76 7 125 11
50 3 115 8 145 11 184 17 622 24 679 11 55 -13 92 -46 118 -106 14 -31 29 -65
34 -76 5 -11 27 -74 50 -139 23 -66 47 -125 53 -133 6 -7 27 -31 47 -53 54
-59 67 -116 84 -360 5 -74 15 -178 18 -200 2 -8 15 -35 29 -60 18 -30 29 -65
32 -105 4 -51 10 -95 20 -158 5 -32 43 -75 93 -106 68 -43 80 -61 87 -136 6
-68 12 -101 21 -115 3 -5 8 -18 10 -28 9 -49 48 -113 74 -120 35 -9 410 -9
535 2 112 9 131 12 148 22 7 4 8 3 4 -5 -6 -8 -1 -8 18 0 14 7 27 17 29 23 7
17 -4 76 -14 76 -5 0 -9 6 -9 14 0 8 -35 45 -78 83 -43 37 -103 100 -133 138
-31 39 -75 83 -100 99 -97 65 -131 109 -171 221 -34 95 -45 183 -24 191 9 4
22 2 29 -4 23 -18 102 -40 172 -47 39 -4 84 -9 100 -11 17 -3 48 -7 69 -9 22
-3 56 -10 75 -16 46 -14 131 -70 131 -86 0 -7 4 -13 9 -13 22 0 66 -147 77
-254 3 -38 10 -82 14 -98 5 -15 7 -28 5 -28 -3 0 4 -15 15 -32 11 -18 33 -59
50 -90 27 -53 93 -128 111 -128 4 0 14 -6 21 -12 7 -7 43 -28 79 -47 90 -46
130 -82 133 -121 5 -69 44 -77 377 -74 160 1 248 5 279 14 25 8 47 14 50 14
22 4 120 70 134 91 20 31 25 25 -116 133 -32 25 -73 69 -97 106 -28 43 -59 76
-95 100 -30 20 -57 36 -60 36 -14 0 -118 73 -145 102 -16 17 -40 58 -53 91
-21 52 -119 197 -140 205 -4 2 -8 8 -8 14 0 5 -13 29 -30 53 -16 24 -30 48
-30 53 0 5 -7 22 -15 38 -8 16 -21 70 -30 119 -8 50 -18 104 -21 121 -5 31 -3
33 52 59 32 15 64 28 71 29 7 1 19 8 25 14 7 7 16 12 20 12 22 0 149 125 208
205 25 33 47 62 50 65 4 3 21 30 39 60 38 63 136 164 168 174 12 4 39 23 60
42 21 20 56 44 78 54 45 19 131 109 161 167 10 21 20 40 21 42 2 2 40 -34 86
-80 46 -46 99 -99 119 -116 20 -18 46 -52 57 -76 37 -76 91 -113 201 -137 30
-7 73 -22 94 -32 80 -41 195 -4 245 79 13 22 43 53 67 69 30 20 48 42 59 72 9
23 33 61 52 85 20 23 44 62 55 86 26 60 17 55 268 175 45 22 62 38 95 89 22
34 42 64 46 67 12 10 55 85 54 95 0 6 -9 24 -18 42 -10 20 -19 64 -22 115 -3
45 -7 125 -10 178 -3 53 -8 108 -11 121 -3 13 -7 40 -10 59 -3 19 -9 44 -14
55 -4 11 -13 40 -20 65 -6 25 -18 61 -27 80 -26 57 -28 111 -4 164 30 69 37
137 17 176 -18 36 -15 43 34 97 44 47 91 121 123 193 33 71 40 101 27 120 -14
23 -101 -11 -179 -71 -36 -27 -68 -46 -73 -41 -4 4 -9 28 -11 52 -2 25 -9 55
-15 67 -7 12 -12 28 -12 35 0 16 -103 118 -119 118 -6 0 -11 5 -11 11 0 5 -4
8 -9 4 -5 -3 -12 -1 -16 4 -9 16 -110 58 -156 66 -50 9 -100 8 -209 -2 -170
-15 -199 -11 -270 33 -36 22 -92 49 -125 59 -41 12 -70 29 -92 53 -18 19 -32
38 -31 41 1 3 -9 29 -21 56 -26 58 -48 120 -55 155 -2 14 -20 76 -40 138 -20
63 -36 123 -36 134 0 64 -54 177 -165 343 -75 112 -106 150 -141 172 -61 39
-219 127 -220 123 -1 -3 -10 2 -20 11 -11 8 -46 28 -79 43 -33 16 -73 34 -90
42 -45 21 -225 84 -225 79 0 -2 -16 3 -35 11 -20 8 -48 16 -63 18 -15 3 -36 7
-47 9 -11 3 -41 10 -66 16 -26 6 -59 15 -74 21 -15 6 -44 13 -64 16 -20 3 -43
7 -52 10 -9 2 -34 7 -55 10 -22 2 -50 7 -64 9 -25 5 -59 11 -125 20 -19 3 -50
7 -67 10 -97 15 -140 17 -325 20 -112 1 -204 0 -206 -1z m-5019 -1213 c23 -12
42 -23 42 -26 0 -3 -17 -22 -37 -42 -53 -55 -107 -142 -132 -215 -13 -35 -28
-74 -34 -88 -6 -14 -10 -28 -9 -32 1 -3 -15 -14 -35 -23 -31 -15 -42 -16 -72
-5 -71 24 -138 83 -149 130 -11 50 -13 152 -3 181 14 45 76 109 104 109 7 0
17 3 21 8 34 35 237 37 304 3z"/>
</g>
</svg>
